<?xml version="1.0" encoding="UTF-8" standalone="no"?>
<!DOCTYPE svg PUBLIC "-//W3C//DTD SVG 1.1//EN" "http://www.w3.org/Graphics/SVG/1.1/DTD/svg11.dtd">
<svg width="100%" height="100%" viewBox="0 0 567 567" version="1.1" xmlns="http://www.w3.org/2000/svg" xmlns:xlink="http://www.w3.org/1999/xlink" xml:space="preserve" xmlns:serif="http://www.serif.com/" style="fill-rule:evenodd;clip-rule:evenodd;stroke-linecap:round;stroke-linejoin:round;stroke-miterlimit:1.5;">
    <g transform="matrix(0.0084874,0,0,0.0127032,404.274,31.1625)">
        <path d="M4136,11604.5L4136,33920L-32604,33920L-32604,11604.5L4136,11604.5Z" style="fill:none;stroke:black;stroke-width:18.51px;"/>
    </g>
    <g transform="matrix(0.0084874,0,0,0.0127032,404.274,31.1625)">
        <path d="M-31268,35705.2L-31268,34812.6C-31268,34812.6 -32604,34812.6 -32604,34812.6L-32604,35705.2C-32604,35705.2 -33940,35705.2 -33940,35705.2L-33940,10711.9L-25590,10711.9C-25590,10711.9 -25590,4017.23 -25590,4017.23L-24254,4017.23C-24254,4017.23 -24254,10711.9 -24254,10711.9C-24254,10711.9 -4214,10711.9 -4214,10711.9L-4214,4017.23L-2878,4017.23C-2878,4017.23 -2878,10711.9 -2878,10711.9L5472,10711.9L5472,35705.2C5472,35705.2 4136,35705.2 4136,35705.2L4136,34812.6L2800,34812.6L2800,35705.2L-31268,35705.2" style="fill:none;stroke:black;stroke-width:18.51px;"/>
    </g>
</svg>
